<svg xmlns="http://www.w3.org/2000/svg" version="1.1" xmlns:xlink="http://www.w3.org/1999/xlink" width="1096" height="1096"><svg version="1.2" xmlns="http://www.w3.org/2000/svg" viewBox="0 0 1096 1096" width="1096" height="1096">
	<defs>
		<clipPath clipPathUnits="userSpaceOnUse" id="SvgjsClipPath1019">
			<path d="m548 1081.5c-295.03 0-533.5-238.47-533.5-533.5 0-295.03 238.47-533.5 533.5-533.5 295.03 0 533.5 238.47 533.5 533.5 0 295.03-238.47 533.5-533.5 533.5z"></path>
		</clipPath>
	</defs>
	<style>
		.s0 { fill: #ffffff } 
		.s1 { fill: #f000ff;stroke: #f000ff;paint-order:stroke fill markers;stroke-linejoin: round;stroke-width: 6 } 
		.s2 { fill: #0166ff;stroke: #0166ff;paint-order:stroke fill markers;stroke-linejoin: round;stroke-width: 6 } 
		.s3 { fill: #00deff;stroke: #00deff;paint-order:stroke fill markers;stroke-linejoin: round;stroke-width: 6 } 
		.s4 { fill: #00ff01;stroke: #00ff01;paint-order:stroke fill markers;stroke-linejoin: round;stroke-width: 6 } 
		.s5 { fill: #ffff01;stroke: #ffff01;paint-order:stroke fill markers;stroke-linejoin: round;stroke-width: 6 } 
		.s6 { fill: #ffaa07;stroke: #ffaa07;paint-order:stroke fill markers;stroke-linejoin: round;stroke-width: 6 } 
		.s7 { fill: #fe0000;stroke: #fe0000;paint-order:stroke fill markers;stroke-linejoin: round;stroke-width: 6 } 
		.s8 { fill: #000000 } 
	</style>
	<g clip-path="url(#cp1)">
		<path id="SvgjsPath1018" fill-rule="evenodd" class="s0" d="m548 1081.5c-295.03 0-533.5-238.47-533.5-533.5 0-295.03 238.47-533.5 533.5-533.5 295.03 0 533.5 238.47 533.5 533.5 0 295.03-238.47 533.5-533.5 533.5z"></path>
		<path id="SvgjsPath1017" class="s1" d="m1052.5 488.4c-12.65 7.29-46.4 26.67-75 43.07-28.6 16.39-67.3 38.6-86 49.33-18.7 10.74-42.33 24.24-52.5 30-10.17 5.77-18.95 10.85-19.5 11.3-0.61 0.5 7.67 12.36 21.38 30.61 12.31 16.38 22.66 30.09 23 30.45 0.34 0.36 3.54-1.03 7.12-3.08 3.58-2.06 11-6.36 16.5-9.57 5.5-3.2 34.52-19.88 64.5-37.05 29.98-17.17 66.88-38.31 82-46.98 15.13-8.66 32-18.31 37.5-21.44l10-5.69c0.47-28.56 0.12-42.93-0.46-50.35-0.59-7.42-1.5-18.11-2.02-23.75-0.68-7.25-1.33-10.23-2.24-10.17-0.7 0.04-11.63 6.04-24.28 13.32z"></path>
		<path id="SvgjsPath1016" class="s2" d="m1057.43 402.36c-2.16 1.25-28.9 16.6-59.43 34.11-30.53 17.51-78.23 44.87-106 60.79-27.78 15.92-65.46 37.45-83.75 47.84-23.95 13.61-33.02 19.25-32.42 20.15 0.45 0.69 9.9 13.51 21 28.5l20.17 27.25c12.79-7.56 38.1-22.12 64.5-37.23 26.4-15.11 72.75-41.66 103-59 30.25-17.34 63.46-36.42 73.79-42.4 10.34-5.98 18.77-11.32 18.75-11.87-0.02-0.55-1.14-7.3-2.5-15-1.35-7.7-3.79-19.85-5.42-27-1.63-7.15-3.92-16.38-5.08-20.5-1.16-4.13-2.24-7.59-2.4-7.7-0.16-0.11-2.06 0.82-4.21 2.06z"></path>
		<path id="SvgjsPath1015" class="s3" d="m991.46 351.59c-23.63 13.5-46.11 26.37-49.96 28.59-3.85 2.22-31.75 18.24-62 35.59-30.25 17.35-76.15 43.65-102 58.45-25.85 14.8-47.37 27.22-47.82 27.59-0.44 0.38 9.23 14.28 21.5 30.89 12.28 16.61 22.66 30.22 23.07 30.25 0.41 0.03 5.59-2.81 11.5-6.31 5.91-3.5 32.8-18.98 59.75-34.4 26.95-15.42 76.22-43.65 109.5-62.74 33.27-19.09 70.76-40.62 83.29-47.85 14.16-8.17 22.77-13.72 22.73-14.65-0.03-0.82-2.72-9.37-5.98-19-3.25-9.62-8.88-24.7-12.5-33.5-3.62-8.8-6.93-16.33-7.35-16.73-0.42-0.4-20.1 10.32-43.73 23.82z"></path>
		<path id="SvgjsPath1014" class="s4" d="m938 298.35c-33.83 19.4-74.33 42.62-90 51.6-15.67 8.99-41.1 23.56-56.5 32.39-15.4 8.83-45.55 26.11-67 38.4-21.45 12.29-39.23 22.54-39.5 22.78-0.27 0.23 9.17 13.22 21 28.86l21.5 28.44c5.42-3.51 17.58-10.62 30.5-18.05 12.92-7.44 29.8-17.12 37.5-21.51 7.7-4.4 20.52-11.73 28.5-16.3 7.98-4.56 18.55-10.63 23.5-13.47 4.95-2.84 32.4-18.58 61-34.96 28.6-16.39 57.85-33.19 65-37.33 7.15-4.15 23.58-13.57 36.5-20.95 12.92-7.37 23.61-13.6 23.75-13.83 0.14-0.23-3.77-8.41-8.69-18.17-4.92-9.76-12.35-23.49-16.5-30.5-4.16-7.01-7.9-12.73-8.31-12.71-0.41 0.02-28.42 15.91-62.25 35.31z"></path>
		<path id="SvgjsPath1013" class="s5" d="m947 207.89c-4.67 2.69-51.25 29.38-103.5 59.32-52.25 29.94-118.85 68.08-148 84.75-29.15 16.67-53.54 30.81-54.2 31.43-0.91 0.84 3.83 7.81 19.81 29.11 11.55 15.4 21.31 28.33 21.7 28.73 0.38 0.4 3.39-0.91 6.69-2.89 3.3-1.99 33.67-19.48 67.5-38.86 33.83-19.37 78.6-45.01 99.5-56.97 20.9-11.96 51.05-29.27 67-38.46 15.95-9.19 39.13-22.48 51.5-29.53 12.38-7.05 22.88-13.09 23.34-13.42 0.46-0.33-1.97-4.87-5.42-10.1-3.44-5.22-10.79-15.57-16.33-23-5.54-7.42-12.21-16.09-14.83-19.25-2.62-3.16-5.1-5.75-5.51-5.74-0.41 0-4.58 2.2-9.25 4.88z"></path>
		<path id="SvgjsPath1012" class="s6" d="m845.5 170.83c-27.5 15.79-73.63 42.25-102.5 58.81-28.88 16.55-64.42 36.96-79 45.34-14.58 8.38-37.19 21.26-50.25 28.63-16.36 9.23-23.53 13.78-23.05 14.64 0.38 0.69 11.4 15.54 24.5 33 13.09 17.46 24.14 31.58 24.55 31.38 0.41-0.2 24.15-13.76 52.75-30.14 28.6-16.37 70.45-40.35 93-53.27 22.55-12.93 57.88-33.18 78.5-45 20.63-11.83 49.65-28.48 64.5-37 14.85-8.52 27.08-15.54 27.18-15.6 0.1-0.07-6-6.87-13.55-15.12-7.55-8.25-20.9-21.65-29.68-29.79-8.77-8.13-16.18-14.74-16.45-14.68-0.27 0.05-23 13.01-50.5 28.8z"></path>
		<path id="SvgjsPath1011" class="s7" d="m841 110.31c-4.13 2.37-13.8 7.86-21.5 12.18-7.7 4.33-17.6 9.96-22 12.52-4.4 2.56-12.95 7.49-19 10.96-6.05 3.47-14.6 8.43-19 11.02-4.4 2.6-18.58 10.7-31.5 18.02-12.92 7.31-27.55 15.63-32.5 18.48-4.95 2.85-13.95 8.03-20 11.53-6.05 3.49-15.73 9.11-21.5 12.48-5.77 3.37-29.17 16.77-52 29.76-22.83 12.99-42.27 24.21-43.21 24.93-1.56 1.19-0.3 3.2 13.26 21.31 8.24 11 15.54 20.41 16.22 20.91q1.23 0.91 8.73-3.37c4.13-2.35 35.4-20.26 69.5-39.81 34.1-19.54 80.23-45.97 102.5-58.73 22.27-12.76 59.17-33.9 82-46.98 22.83-13.07 41.95-24.12 42.5-24.55 0.58-0.44-5.12-5.6-13.5-12.22-7.98-6.3-18.1-13.98-22.5-17.06-4.4-3.09-8.23-5.64-8.5-5.66-0.27-0.02-3.87 1.9-8 4.28z"></path>
	</g>
	<path id="SvgjsPath1010" fill-rule="evenodd" class="s8" d="m533.22 234.29c0.39 0.12 78.37 103.93 173.27 230.71 134.77 180.03 172.27 230.75 171.28 231.62-0.7 0.62-63.6 38.35-278.27 166.56l-208.5-63.68c-114.68-35.03-208.61-63.87-208.75-64.09-0.14-0.23 15.59-23.25 34.95-51.16 19.36-27.91 47.77-68.75 63.14-90.75 15.36-22 27.98-40.11 28.05-40.24 0.06-0.14 33.63 13.72 74.61 30.79 40.97 17.06 74.6 30.9 74.72 30.74 0.12-0.16-26.06-24.14-58.19-53.29-32.13-29.15-58.33-53.51-58.22-54.14 0.1-0.62 43.16-62.36 95.69-137.2 52.52-74.84 95.82-135.98 96.22-135.87zm18.19 51.46c0.29 2.06 0.78 6.45 1.1 9.75 0.31 3.3 0.76 7.57 1 9.5 0.24 1.93 0.69 5.98 1.01 9 0.31 3.02 0.75 7.07 0.97 9 0.21 1.93 0.68 6.43 1.03 10 0.35 3.57 0.8 7.62 0.99 9 0.19 1.37 0.62 5.43 0.95 9 0.33 3.57 0.8 8.07 1.04 10 0.25 1.93 0.7 5.98 1.02 9 0.31 3.02 0.75 7.07 0.97 9 0.21 1.93 0.68 6.43 1.03 10 0.35 3.57 0.8 7.62 0.99 9 0.19 1.37 0.62 5.43 0.95 9 0.33 3.57 0.8 8.07 1.04 10 0.25 1.93 0.7 5.98 1.02 9 0.31 3.02 0.75 7.07 0.97 9 0.21 1.93 0.68 6.43 1.03 10 0.35 3.57 0.8 7.62 0.99 9 0.19 1.37 0.62 5.43 0.95 9 0.33 3.57 0.8 8.07 1.04 10 0.25 1.93 0.7 5.98 1.02 9 0.31 3.02 0.75 7.07 0.97 9 0.21 1.93 0.68 6.43 1.03 10 0.35 3.57 0.8 7.62 0.99 9 0.19 1.37 0.62 5.42 0.95 9 0.33 3.58 0.8 8.08 1.04 10 0.25 1.92 0.7 5.98 1.02 9 0.31 3.02 0.75 7.08 0.97 9 0.21 1.92 0.68 6.42 1.03 10 0.35 3.58 0.8 7.62 0.99 9 0.19 1.37 0.63 5.42 0.98 9 0.34 3.58 1.05 10.33 1.58 15 0.52 4.67 1.19 10.75 1.49 13.5 0.29 2.75 0.71 6.58 0.93 8.5 0.21 1.92 0.68 6.42 1.03 10 0.35 3.58 0.8 7.62 1 9 0.2 1.37 0.64 5.65 0.97 9.5 0.34 3.85 0.8 8.12 1.02 9.5 0.22 1.37 0.68 5.42 1.02 9 0.33 3.58 0.77 7.62 0.96 9 0.19 1.37 0.67 5.87 1.05 10 0.38 4.12 0.82 8.17 0.97 9 0.15 0.83 0.57 4.87 0.93 9 0.36 4.12 0.84 8.62 1.06 10 0.23 1.37 0.69 5.42 1.03 9 0.33 3.58 0.77 7.62 0.96 9 0.19 1.37 0.67 5.87 1.05 10 0.38 4.12 0.82 8.17 0.97 9 0.15 0.83 0.57 4.87 0.93 9 0.36 4.12 0.84 8.62 1.06 10 0.23 1.37 0.69 5.42 1.03 9 0.33 3.58 0.77 7.62 0.96 9 0.19 1.37 0.67 5.87 1.05 10 0.38 4.12 0.82 8.17 0.98 9 0.15 0.83 0.58 5.1 0.95 9.5 0.37 4.4 0.84 8.67 1.04 9.5 0.2 0.83 0.66 4.87 1.03 9 0.37 4.12 0.86 8.4 1.09 9.5 0.23 1.1 0.62 2.23 0.87 2.5 0.24 0.27 55.97-32.8 123.82-73.5l123.38-74c-226.51-302.25-295.43-394.39-299.29-399.75-3.86-5.36-7.36-9.75-7.77-9.75-0.41 0-0.52 1.69-0.23 3.75z"></path>
</svg><style>@media (prefers-color-scheme: light) { :root { filter: none; } }
@media (prefers-color-scheme: dark) { :root { filter: none; } }
</style></svg>